HIERARCHY
ROOT joint_Root
{
	OFFSET 0.0 0.0 0.0
	CHANNELS 6 Xposition Yposition Zposition Zrotation Xrotation Yrotation 
	JOINT Hips
	{
		OFFSET 4.5925 91.4895 -427.239
		CHANNELS 6 Xposition Yposition Zposition Zrotation Xrotation Yrotation 
		JOINT Spine
		{
			OFFSET 15.7357 0.0 0.0
			CHANNELS 6 Xposition Yposition Zposition Zrotation Xrotation Yrotation 
			JOINT Chest
			{
				OFFSET 8.98455 -0.406207 0.0
				CHANNELS 6 Xposition Yposition Zposition Zrotation Xrotation Yrotation 
				JOINT Neck
				{
					OFFSET 16.3773 0.0 0.0
					CHANNELS 6 Xposition Yposition Zposition Zrotation Xrotation Yrotation 
					JOINT Head
					{
						OFFSET 6.45672 0.0 0.0
						CHANNELS 6 Xposition Yposition Zposition Zrotation Xrotation Yrotation 
						End Site
						{
							OFFSET 0.0 0.0 0.0
						}
					}
				}
				JOINT Shoulder_L
				{
					OFFSET 12.9942 -0.242716 4.98039
					CHANNELS 6 Xposition Yposition Zposition Zrotation Xrotation Yrotation 
					JOINT UpperArm_L
					{
						OFFSET 5.34809 0.0 0.0
						CHANNELS 6 Xposition Yposition Zposition Zrotation Xrotation Yrotation 
						JOINT LowerArm_L
						{
							OFFSET 24.3286 1.87007e-05 0.0
							CHANNELS 6 Xposition Yposition Zposition Zrotation Xrotation Yrotation 
							JOINT Hand_L
							{
								OFFSET 22.2916 0.0 0.0
								CHANNELS 6 Xposition Yposition Zposition Zrotation Xrotation Yrotation 
								End Site
								{
									OFFSET 0.0 0.0 0.0
								}
							}
						}
					}
				}
				JOINT Shoulder_R
				{
					OFFSET 12.9945 -0.242716 -4.98039
					CHANNELS 6 Xposition Yposition Zposition Zrotation Xrotation Yrotation 
					JOINT UpperArm_R
					{
						OFFSET -5.34813 0.0 0.0
						CHANNELS 6 Xposition Yposition Zposition Zrotation Xrotation Yrotation 
						JOINT LowerArm_R
						{
							OFFSET -24.3289 0.000322201 0.0
							CHANNELS 6 Xposition Yposition Zposition Zrotation Xrotation Yrotation 
							JOINT Hand_R
							{
								OFFSET -22.2915 -0.000108084 0.0
								CHANNELS 6 Xposition Yposition Zposition Zrotation Xrotation Yrotation 
								End Site
								{
									OFFSET 0.0 0.0 0.0
								}
							}
						}
					}
				}
			}
		}
		JOINT UpperLeg_L
		{
			OFFSET -2.19248 -6.46944 0.0
			CHANNELS 6 Xposition Yposition Zposition Zrotation Xrotation Yrotation 
			JOINT LowerLeg_L
			{
				OFFSET 39.0811 0.0 -1.23785e-05
				CHANNELS 6 Xposition Yposition Zposition Zrotation Xrotation Yrotation 
				JOINT Foot_L
				{
					OFFSET 40.9854 0.0 -1.26872e-05
					CHANNELS 6 Xposition Yposition Zposition Zrotation Xrotation Yrotation 
					JOINT Toes_L
					{
						OFFSET 11.7543 0.0 0.0
						CHANNELS 6 Xposition Yposition Zposition Zrotation Xrotation Yrotation 
						End Site
						{
							OFFSET 0.0 0.0 0.0
						}
					}
				}
			}
		}
		JOINT UpperLeg_R
		{
			OFFSET -2.19251 6.46944 0.0
			CHANNELS 6 Xposition Yposition Zposition Zrotation Xrotation Yrotation 
			JOINT LowerLeg_R
			{
				OFFSET -39.0811 -0.00228153 -0.0401928
				CHANNELS 6 Xposition Yposition Zposition Zrotation Xrotation Yrotation 
				JOINT Foot_R
				{
					OFFSET -40.9854 0.0 0.0
					CHANNELS 6 Xposition Yposition Zposition Zrotation Xrotation Yrotation 
					JOINT Toes_R
					{
						OFFSET -11.7543 0.0 0.0
						CHANNELS 6 Xposition Yposition Zposition Zrotation Xrotation Yrotation 
						End Site
						{
							OFFSET 0.0 0.0 0.0
						}
					}
				}
			}
		}
	}
}
MOTION
Frames:	4
Frame Time:	0.0333333
0.000000 0.000000 0.000000 0.000000 0.000000 -0.000000 -0.292183 90.570900 1.667610 91.828600 -3.340080 5.815600 15.735700 0.000005 -0.000001 89.915400 84.548500 -84.601500 8.984550 -0.406207 -0.000000 3.169830 -0.228255 10.622800 16.377300 -0.000001 -0.000001 7.790260 -7.855640 3.340500 6.456720 -0.000001 -0.000000 1.774580 -10.075800 7.624330 12.994200 -0.242716 4.980390 -86.176600 -8.664810 -66.081400 5.348090 -0.000007 -0.000001 -38.889900 -46.512300 -50.615700 24.328600 0.000019 0.000005 -1.066370 -1.663300 -32.808200 22.291600 -0.000001 0.000005 27.761000 5.044160 6.369520 12.994500 -0.242716 -4.980390 87.855900 6.692270 -72.190000 -5.348130 -0.000001 -0.000004 -58.043400 9.220110 2.758160 -24.328900 0.000322 -0.000009 -5.896020 -11.585700 -27.208300 -22.291500 -0.000108 -0.000004 20.946500 5.461030 -5.036860 -2.192480 -6.469440 -0.000000 -177.728000 -13.040200 -2.158900 39.081100 -0.000007 -0.000012 -0.187877 0.332276 29.485100 40.985400 -0.000006 -0.000013 0.419270 5.908600 -71.444800 11.754300 -0.000000 0.000003 -0.000093 -0.000964 -16.614600 -2.192510 6.469440 -0.000001 172.854000 16.283000 177.175000 -39.081100 -0.002282 -0.040193 -0.074997 0.125891 31.878700 -40.985400 0.000008 0.000006 5.890250 12.308400 -74.079600 -11.754300 -0.000006 -0.000006 -0.001340 -0.020123 -17.391400
0.000000 0.000000 0.000000 0.000000 0.000000 -0.000000 -0.171820 90.465000 1.673770 91.846500 -4.157230 5.804560 15.735700 0.000005 -0.000001 88.711200 84.348100 -82.994900 8.984550 -0.406207 -0.000000 3.583700 -0.461370 11.434500 16.377300 -0.000001 -0.000001 7.591870 -8.463150 6.353130 6.456720 -0.000001 -0.000000 1.432450 -9.875430 6.610310 12.994200 -0.242716 4.980390 -87.206100 -6.721180 -67.365100 5.348090 -0.000007 -0.000001 -42.816400 -40.792700 -41.509900 24.328600 0.000019 0.000005 -2.652090 -5.090310 -27.562500 22.291600 -0.000001 0.000005 23.844000 5.000670 7.312740 12.994500 -0.242716 -4.980390 87.759700 6.928300 -72.031500 -5.348130 -0.000001 -0.000004 -57.563600 9.243060 2.141880 -24.328900 0.000322 -0.000009 -5.853670 -11.517700 -27.174400 -22.291500 -0.000108 -0.000004 21.469800 5.463870 -5.142830 -2.192480 -6.469440 -0.000000 -177.920000 -13.043800 -2.383600 39.081100 -0.000007 -0.000012 -0.197225 0.341362 30.017900 40.985400 -0.000006 -0.000013 0.318310 5.088290 -71.791300 11.754300 -0.000000 0.000003 -0.000102 -0.001046 -16.617700 -2.192510 6.469440 -0.000001 172.757000 15.641500 176.736000 -39.081100 -0.002282 -0.040193 -0.112785 0.182896 32.402900 -40.985400 0.000008 0.000006 5.462640 12.654900 -74.161100 -11.754300 -0.000006 -0.000006 -0.001166 -0.017737 -17.294400
0.000000 0.000000 0.000000 0.000000 0.000000 -0.000000 -0.137490 90.416800 1.762530 91.578100 -5.077090 5.684770 15.735700 0.000005 -0.000001 89.939600 84.321100 -83.966000 8.984550 -0.406207 -0.000000 3.631600 -0.226125 11.941300 16.377300 -0.000001 -0.000001 7.828860 -9.213400 7.868980 6.456720 -0.000001 -0.000000 1.423160 -10.808500 6.636420 12.994200 -0.242716 4.980390 -87.715400 -5.348470 -66.828200 5.348090 -0.000007 -0.000001 -48.467600 -36.713500 -37.579000 24.328600 0.000019 0.000005 -1.384690 -2.715460 -27.027700 22.291600 -0.000001 0.000005 24.934200 4.935820 8.653840 12.994500 -0.242716 -4.980390 87.692800 7.055790 -71.840500 -5.348130 -0.000001 -0.000004 -57.762600 8.869400 2.852510 -24.328900 0.000322 -0.000009 -5.857840 -11.579300 -27.068800 -22.291500 -0.000108 -0.000004 21.556200 5.456370 -4.868720 -2.192480 -6.469440 -0.000000 -177.851000 -12.702200 -2.532330 39.081100 -0.000007 -0.000012 -0.210197 0.359265 30.331200 40.985400 -0.000006 -0.000013 0.022722 3.890530 -72.085500 11.754300 -0.000000 0.000003 -0.000114 -0.001147 -16.621400 -2.192510 6.469440 -0.000001 172.854000 15.645000 176.560000 -39.081100 -0.002282 -0.040193 -0.159326 0.256253 32.400100 -40.985400 0.000008 0.000006 5.031870 13.695300 -74.039400 -11.754300 -0.000006 -0.000006 -0.001352 -0.020289 -17.398100
0.000000 0.000000 0.000000 0.000000 0.000000 -0.000000 -0.266502 90.401600 1.949050 91.211800 -5.349340 5.670390 15.735700 0.000005 -0.000001 92.752900 84.390400 -86.727800 8.984550 -0.406207 -0.000000 3.452340 0.312781 12.027800 16.377300 -0.000001 -0.000001 7.671060 -9.685930 7.406850 6.456720 -0.000001 -0.000000 1.865730 -11.867700 5.889030 12.994200 -0.242716 4.980390 -87.812200 -4.935360 -66.056000 5.348090 -0.000007 -0.000001 -51.351200 -34.513300 -38.348000 24.328600 0.000019 0.000005 -2.324350 -4.051810 -29.875200 22.291600 -0.000001 0.000005 24.830000 4.949650 8.371480 12.994500 -0.242716 -4.980390 87.728900 7.006390 -71.989200 -5.348130 -0.000001 -0.000004 -58.865700 8.734390 4.844140 -24.328900 0.000322 -0.000009 -6.183720 -12.565800 -26.470600 -22.291500 -0.000108 -0.000004 21.447800 5.455920 -4.852750 -2.192480 -6.469440 -0.000000 -177.500000 -12.188000 -2.438520 39.081100 -0.000007 -0.000012 -0.217707 0.369991 30.473400 40.985400 -0.000006 -0.000013 -0.267968 3.209090 -72.306800 11.754300 -0.000000 0.000003 -0.000123 -0.001231 -16.624600 -2.192510 6.469440 -0.000001 173.056000 16.136800 176.877000 -39.081100 -0.002282 -0.040193 -0.190473 0.309001 32.091500 -40.985400 0.000008 0.000006 4.744930 14.550100 -73.933900 -11.754300 -0.000006 -0.000006 -0.001207 -0.018303 -17.317400
